# xmcd
#
# Track frame offsets:
#	150
#	12188
#	22624
#	39878
#	49037
#	69620
#	84437
#	95643
#	111692
#	124576
#	136781
#	152880
#	168863
#	184997
#	199960
#	215260
#	230604
#	242748
#	254260
#	273346
#
# Disc length: 3824 seconds
#
# Revision: 0
# Processed by: cddbd v1.5.2PL0 Copyright (c) Steve Scherf et al.
# Submitted via: audiograbber 1.83.01
#
DISCID=0e0eee14
DTITLE=Various Artist - 100 Megahits - Country CD1
DYEAR=2011
DGENRE=
TTITLE0=Dolly Parton - Jolene
TTITLE1=Connie Smith - once a day
TTITLE2=Alan Jackson - it`s five o clock somewhere
TTITLE3=Charley Pride - kiss an angel good mornin
TTITLE4=Billy Ray Cyrus - stand still
TTITLE5=Diamond Rio - meet in the middle
TTITLE6=Don Gibson - oh lonsome me
TTITLE7=Brooks and Dunn - cowgirls don`t cry
TTITLE8=Blaine Larsen - that`s all i`ve got to say about that
TTITLE9=Clint Black - a good run of bad luck
TTITLE10=Crystal Shawanda - you can let go
TTITLE11=Sara Evans - i don`t wanna see the light
TTITLE12=Charlie Daniels - the devil went down to georgia
TTITLE13=Carrie Underwood - before he cheats
TTITLE14=Brad Paisley - wrapped around
TTITLE15=Chet Atkins and Mark Knopfler - yakety axe
TTITLE16=Bobby Bare - 500 miles away from home
TTITLE17=Dottie West - here comes my baby
TTITLE18=Dan Fogelberg - run for the roses
TTITLE19=Alabama - high cotton
EXTD=
EXTT0=
EXTT1=
EXTT2=
EXTT3=
EXTT4=
EXTT5=
EXTT6=
EXTT7=
EXTT8=
EXTT9=
EXTT10=
EXTT11=
EXTT12=
EXTT13=
EXTT14=
EXTT15=
EXTT16=
EXTT17=
EXTT18=
EXTT19=
PLAYORDER=
